<svg width="18" height="22" viewBox="0 0 18 22" fill="none" xmlns="http://www.w3.org/2000/svg">
<path d="M3.33044 16.3836C3.33044 16.932 3.7781 17.3796 4.32888 17.3796H5.47029V20.2015C5.47029 20.9164 6.04451 21.5 6.74998 21.5C7.45779 21.5 8.02966 20.9187 8.02966 20.2015V17.3773H10.0218V20.1992C10.0218 20.914 10.5961 21.4976 11.3015 21.4976C12.0094 21.4976 12.5812 20.9164 12.5812 20.1992V17.3773H13.7226C14.2734 17.3773 14.7211 16.9296 14.7211 16.3812V7.11871H3.33044V16.3836ZM11.7 2.31871L12.7523 0.795271C12.8133 0.706208 12.7992 0.586677 12.7172 0.528083C12.6351 0.471833 12.5179 0.499958 12.457 0.589021L11.3648 2.1734C10.6453 1.8898 9.84373 1.73277 9.00232 1.73277C8.16091 1.73277 7.35935 1.8898 6.63982 2.1734L5.54763 0.591364C5.48669 0.502302 5.36951 0.471833 5.28748 0.530427C5.20544 0.586677 5.19138 0.703864 5.25232 0.797614L6.30466 2.32105C4.63123 3.09918 3.45935 4.5734 3.30935 6.29605H14.7C14.5453 4.57105 13.3711 3.09683 11.7 2.31871ZM6.59763 4.72105C6.47294 4.72105 6.35104 4.68408 6.24736 4.6148C6.14368 4.54552 6.06287 4.44706 6.01515 4.33185C5.96744 4.21665 5.95495 4.08988 5.97928 3.96758C6.0036 3.84529 6.06365 3.73295 6.15182 3.64477C6.24 3.5566 6.35233 3.49656 6.47463 3.47223C6.59693 3.4479 6.7237 3.46039 6.8389 3.50811C6.9541 3.55582 7.05257 3.63663 7.12185 3.74031C7.19112 3.84399 7.2281 3.96589 7.2281 4.09058C7.22767 4.25766 7.1611 4.41777 7.04296 4.53591C6.92482 4.65406 6.76471 4.72062 6.59763 4.72105ZM11.482 4.72105C11.3573 4.72105 11.2354 4.68408 11.1317 4.6148C11.0281 4.54552 10.9472 4.44706 10.8995 4.33185C10.8518 4.21665 10.8393 4.08988 10.8637 3.96758C10.888 3.84529 10.948 3.73295 11.0362 3.64477C11.1244 3.5566 11.2367 3.49656 11.359 3.47223C11.4813 3.4479 11.6081 3.46039 11.7233 3.50811C11.8385 3.55582 11.9369 3.63663 12.0062 3.74031C12.0755 3.84399 12.1125 3.96589 12.1125 4.09058C12.112 4.25766 12.0455 4.41777 11.9273 4.53591C11.8092 4.65406 11.6491 4.72062 11.482 4.72105ZM16.7179 7.08121C16.0101 7.08121 15.4383 7.66246 15.4383 8.37965V13.4515C15.4383 14.1664 16.0125 14.75 16.7179 14.75C17.4258 14.75 17.9976 14.1687 17.9976 13.4515V8.3773C18 7.66011 17.4281 7.08121 16.7179 7.08121ZM1.28201 7.08121C0.574194 7.08121 0.00231934 7.66246 0.00231934 8.37965V13.4515C0.00231934 14.1664 0.576538 14.75 1.28201 14.75C1.98982 14.75 2.56169 14.1687 2.56169 13.4515V8.3773C2.56169 7.66011 1.98748 7.08121 1.28201 7.08121Z" fill="black"/>
</svg>
