<svg width="1345" height="1099" viewBox="0 0 1345 1099" fill="none" xmlns="http://www.w3.org/2000/svg">
<path d="M12.642 421H11.642V422H12.642V421ZM12.642 275.545V274.545H11.642V275.545H12.642ZM98.2244 281.866L97.7475 282.745L97.7516 282.748L98.2244 281.866ZM115.98 299.267L115.103 299.747L115.107 299.754L115.98 299.267ZM97.7983 367.662L97.3363 366.775L97.3341 366.776L97.7983 367.662ZM32.6705 373.841H31.6705V374.841H32.6705V373.841ZM32.6705 349.196V348.196H31.6705V349.196H32.6705ZM78.9062 346.142L79.3751 347.025L79.3791 347.023L78.9062 346.142ZM87.571 337.548L86.6859 337.083L86.6836 337.087L87.571 337.548ZM87.571 312.193L86.6836 312.654L86.6872 312.661L86.6909 312.668L87.571 312.193ZM78.9062 303.741L78.4418 304.627L78.4504 304.632L78.9062 303.741ZM43.3949 300.688V299.688H42.3949V300.688H43.3949ZM43.3949 421V422H44.3949V421H43.3949ZM13.642 421V275.545H11.642V421H13.642ZM12.642 276.545H70.0284V274.545H12.642V276.545ZM70.0284 276.545C80.9348 276.545 90.1608 278.628 97.7475 282.745L98.7014 280.988C90.7578 276.677 81.1865 274.545 70.0284 274.545V276.545ZM97.7516 282.748C105.353 286.827 111.128 292.491 115.103 299.747L116.857 298.787C112.688 291.176 106.626 285.24 98.6973 280.985L97.7516 282.748ZM115.107 299.754C119.132 306.972 121.159 315.322 121.159 324.835H123.159C123.159 315.03 121.067 306.335 116.853 298.78L115.107 299.754ZM121.159 324.835C121.159 334.346 119.109 342.695 115.038 349.912L116.78 350.895C121.043 343.339 123.159 334.642 123.159 324.835H121.159ZM115.038 349.912C110.972 357.121 105.081 362.74 97.3363 366.775L98.2603 368.549C106.33 364.345 112.513 358.459 116.78 350.895L115.038 349.912ZM97.3341 366.776C89.6498 370.803 80.3007 372.841 69.2472 372.841V374.841C80.5421 374.841 90.2271 372.759 98.2625 368.548L97.3341 366.776ZM69.2472 372.841H32.6705V374.841H69.2472V372.841ZM33.6705 373.841V349.196H31.6705V373.841H33.6705ZM32.6705 350.196H64.2756V348.196H32.6705V350.196ZM64.2756 350.196C70.3011 350.196 75.3527 349.161 79.3751 347.025L78.4374 345.259C74.7894 347.195 70.0872 348.196 64.2756 348.196V350.196ZM79.3791 347.023C83.4255 344.852 86.4649 341.847 88.4584 338.009L86.6836 337.087C84.8893 340.541 82.1522 343.265 78.4334 345.261L79.3791 347.023ZM88.4562 338.014C90.4833 334.157 91.483 329.756 91.483 324.835H89.483C89.483 329.479 88.5414 333.553 86.6859 337.083L88.4562 338.014ZM91.483 324.835C91.483 319.87 90.4842 315.487 88.4511 311.718L86.6909 312.668C88.5404 316.096 89.483 320.141 89.483 324.835H91.483ZM88.4584 311.732C86.4626 307.89 83.4175 304.929 79.3621 302.851L78.4504 304.632C82.1601 306.532 84.8915 309.204 86.6836 312.654L88.4584 311.732ZM79.3707 302.856C75.3026 300.723 70.2056 299.688 64.1335 299.688V301.688C69.9933 301.688 74.7448 302.688 78.4418 304.627L79.3707 302.856ZM64.1335 299.688H43.3949V301.688H64.1335V299.688ZM42.3949 300.688V421H44.3949V300.688H42.3949ZM43.3949 420H12.642V422H43.3949V420ZM154.408 421V422H155.135L155.359 421.309L154.408 421ZM121.454 421L120.509 420.674L120.051 422H121.454V421ZM171.667 275.545V274.545H170.954L170.722 275.219L171.667 275.545ZM211.298 275.545L212.243 275.22L212.011 274.545H211.298V275.545ZM261.44 421V422H262.842L262.385 420.674L261.44 421ZM228.485 421L227.534 421.309L227.758 422H228.485V421ZM192.05 308.784L193.002 308.475L192.777 307.784H192.05V308.784ZM190.914 308.784V307.784H190.188L189.963 308.475L190.914 308.784ZM152.349 363.827V362.827H151.349V363.827H152.349ZM230.19 363.827H231.19V362.827H230.19V363.827ZM230.19 387.832V388.832H231.19V387.832H230.19ZM152.349 387.832H151.349V388.832H152.349V387.832ZM154.408 420H121.454V422H154.408V420ZM122.399 421.326L172.612 275.872L170.722 275.219L120.509 420.674L122.399 421.326ZM171.667 276.545H211.298V274.545H171.667V276.545ZM210.352 275.871L260.494 421.326L262.385 420.674L212.243 275.22L210.352 275.871ZM261.44 420H228.485V422H261.44V420ZM229.436 420.691L193.002 308.475L191.099 309.093L227.534 421.309L229.436 420.691ZM192.05 307.784H190.914V309.784H192.05V307.784ZM189.963 308.475L153.457 420.691L155.359 421.309L191.865 309.093L189.963 308.475ZM152.349 364.827H230.19V362.827H152.349V364.827ZM229.19 363.827V387.832H231.19V363.827H229.19ZM230.19 386.832H152.349V388.832H230.19V386.832ZM153.349 387.832V363.827H151.349V387.832H153.349ZM307.521 417.52L307.112 418.432L307.118 418.435L307.521 417.52ZM287.989 402.321L287.182 402.911L287.187 402.917L287.989 402.321ZM280.674 379.878V378.878H279.657L279.674 379.895L280.674 379.878ZM311.64 379.878L312.638 379.825L312.588 378.878H311.64V379.878ZM315.12 389.253L314.335 389.872L314.341 389.88L314.347 389.888L315.12 389.253ZM323.785 395.432L323.407 396.358L323.785 395.432ZM348.359 395.148L347.94 394.239L348.359 395.148ZM356.81 388.259L357.632 388.828L356.81 388.259ZM356.597 367.804L355.779 368.379L355.784 368.386L355.79 368.394L356.597 367.804ZM347.364 360.702L346.97 361.621L346.974 361.623L347.364 360.702ZM319.594 358.145H318.594V359.145H319.594V358.145ZM319.594 335.56V334.56H318.594V335.56H319.594ZM345.447 333.145L345.038 332.232L345.034 332.234L345.447 333.145ZM353.827 326.469L354.647 327.042L354.651 327.036L353.827 326.469ZM354.183 306.795L353.329 307.316L353.334 307.325L353.339 307.333L354.183 306.795ZM346.938 300.261L346.486 301.153L346.491 301.156L346.938 300.261ZM324.708 300.19L325.099 301.111L325.11 301.106L324.708 300.19ZM316.398 306.511L317.195 307.116V307.116L316.398 306.511ZM313.06 316.17V317.17H314.023L314.06 316.209L313.06 316.17ZM283.586 316.17L282.586 316.154L282.569 317.17H283.586V316.17ZM290.759 294.011L291.568 294.599L290.759 294.011ZM309.509 279.026L309.926 279.935L309.928 279.934L309.509 279.026ZM362.634 279.026L363.07 278.126L362.634 279.026ZM380.177 293.798L379.347 294.356L379.352 294.363L380.177 293.798ZM386.427 314.537L385.427 314.531L385.427 314.543L386.427 314.537ZM378.827 334.92L378.098 334.236L378.095 334.239L378.827 334.92ZM359.012 345.29L358.835 344.306L358.012 344.454V345.29H359.012ZM359.012 346.426H358.012V347.306L358.885 347.418L359.012 346.426ZM383.444 357.577L382.709 358.255L382.714 358.26L383.444 357.577ZM391.825 380.162L390.825 380.157L390.825 380.168L391.825 380.162ZM384.651 402.25L383.851 401.65L383.848 401.654L384.651 402.25ZM364.836 417.449L364.435 416.533L364.836 417.449ZM335.859 421.989C325.368 421.989 316.062 420.186 307.923 416.605L307.118 418.435C315.551 422.146 325.137 423.989 335.859 423.989V421.989ZM307.93 416.607C299.827 412.975 293.46 408.01 288.792 401.725L287.187 402.917C292.083 409.511 298.737 414.678 307.112 418.432L307.93 416.607ZM288.797 401.731C284.191 395.421 281.813 388.142 281.674 379.861L279.674 379.895C279.819 388.564 282.318 396.248 287.182 402.911L288.797 401.731ZM280.674 380.878H311.64V378.878H280.674V380.878ZM310.641 379.931C310.841 383.681 312.072 387.006 314.335 389.872L315.905 388.633C313.907 386.102 312.817 383.177 312.638 379.825L310.641 379.931ZM314.347 389.888C316.644 392.684 319.675 394.836 323.407 396.358L324.162 394.506C320.697 393.092 317.952 391.125 315.893 388.618L314.347 389.888ZM323.407 396.358C327.143 397.882 331.322 398.634 335.93 398.634V396.634C331.541 396.634 327.624 395.918 324.162 394.506L323.407 396.358ZM335.93 398.634C340.735 398.634 345.025 397.784 348.777 396.056L347.94 394.239C344.495 395.826 340.499 396.634 335.93 396.634V398.634ZM348.777 396.056C352.52 394.332 355.483 391.926 357.632 388.828L355.989 387.689C354.065 390.462 351.395 392.649 347.94 394.239L348.777 396.056ZM357.632 388.828C359.793 385.713 360.864 382.125 360.864 378.102H358.864C358.864 381.75 357.9 384.933 355.989 387.689L357.632 388.828ZM360.864 378.102C360.864 374.019 359.715 370.378 357.405 367.214L355.79 368.394C357.836 371.196 358.864 374.42 358.864 378.102H360.864ZM357.415 367.229C355.159 364.02 351.92 361.545 347.754 359.781L346.974 361.623C350.858 363.267 353.774 365.527 355.779 368.379L357.415 367.229ZM347.758 359.783C343.628 358.012 338.753 357.145 333.16 357.145V359.145C338.552 359.145 343.146 359.982 346.97 361.621L347.758 359.783ZM333.16 357.145H319.594V359.145H333.16V357.145ZM320.594 358.145V335.56H318.594V358.145H320.594ZM319.594 336.56H333.16V334.56H319.594V336.56ZM333.16 336.56C337.916 336.56 342.156 335.734 345.86 334.056L345.034 332.234C341.635 333.775 337.684 334.56 333.16 334.56V336.56ZM345.855 334.058C349.596 332.384 352.541 330.051 354.647 327.042L353.008 325.895C351.137 328.569 348.495 330.686 345.038 332.232L345.855 334.058ZM354.651 327.036C356.765 323.965 357.81 320.401 357.81 316.384H355.81C355.81 320.036 354.867 323.196 353.004 325.902L354.651 327.036ZM357.81 316.384C357.81 312.571 356.892 309.183 355.026 306.258L353.339 307.333C354.977 309.9 355.81 312.905 355.81 316.384H357.81ZM355.036 306.275C353.227 303.31 350.666 301.007 347.385 299.367L346.491 301.156C349.46 302.64 351.729 304.694 353.329 307.316L355.036 306.275ZM347.391 299.37C344.148 297.723 340.389 296.918 336.143 296.918V298.918C340.135 298.918 343.573 299.674 346.486 301.153L347.391 299.37ZM336.143 296.918C331.852 296.918 327.902 297.698 324.307 299.274L325.11 301.106C328.427 299.652 332.1 298.918 336.143 298.918V296.918ZM324.317 299.27C320.715 300.8 317.8 303.01 315.602 305.907L317.195 307.116C319.164 304.521 321.788 302.517 325.099 301.111L324.317 299.27ZM315.602 305.907C313.385 308.829 312.21 312.249 312.061 316.132L314.06 316.209C314.194 312.705 315.245 309.687 317.195 307.116L315.602 305.907ZM313.06 315.17H283.586V317.17H313.06V315.17ZM284.586 316.187C284.725 307.999 287.056 300.814 291.568 294.599L289.95 293.424C285.182 299.992 282.731 307.581 282.586 316.154L284.586 316.187ZM291.568 294.599C296.098 288.359 302.207 283.469 309.926 279.935L309.093 278.116C301.092 281.78 294.701 286.88 289.95 293.424L291.568 294.599ZM309.928 279.934C317.686 276.356 326.466 274.557 336.285 274.557V272.557C326.218 272.557 317.146 274.403 309.091 278.117L309.928 279.934ZM336.285 274.557C346.202 274.557 354.83 276.357 362.198 279.926L363.07 278.126C355.381 274.402 346.444 272.557 336.285 272.557V274.557ZM362.198 279.926C369.587 283.504 375.29 288.317 379.347 294.356L381.007 293.241C376.73 286.874 370.738 281.839 363.07 278.126L362.198 279.926ZM379.352 294.363C383.447 300.345 385.473 307.058 385.427 314.531L387.427 314.543C387.475 306.675 385.335 299.562 381.002 293.233L379.352 294.363ZM385.427 314.543C385.473 322.456 383.02 328.995 378.098 334.236L379.556 335.605C384.862 329.955 387.476 322.906 387.427 314.531L385.427 314.543ZM378.095 334.239C373.193 339.508 366.791 342.872 358.835 344.306L359.189 346.274C367.521 344.772 374.329 341.223 379.56 335.602L378.095 334.239ZM358.012 345.29V346.426H360.012V345.29H358.012ZM358.885 347.418C369.425 348.771 377.325 352.414 382.709 358.255L384.179 356.899C378.389 350.618 370 346.828 359.139 345.434L358.885 347.418ZM382.714 358.26C388.156 364.068 390.871 371.342 390.825 380.157L392.825 380.167C392.873 370.895 390.001 363.112 384.174 356.893L382.714 358.26ZM390.825 380.168C390.871 388.242 388.546 395.391 383.851 401.65L385.451 402.85C390.416 396.23 392.873 388.654 392.825 380.156L390.825 380.168ZM383.848 401.654C379.184 407.934 372.727 412.899 364.435 416.533L365.237 418.365C373.801 414.612 380.554 409.445 385.454 402.846L383.848 401.654ZM364.435 416.533C356.154 420.161 346.636 421.989 335.859 421.989V423.989C346.862 423.989 356.662 422.123 365.237 418.365L364.435 416.533ZM418.783 421H417.783V422H418.783V421ZM418.783 275.545V274.545H417.783V275.545H418.783ZM504.365 281.866L503.888 282.745L503.892 282.748L504.365 281.866ZM522.121 299.267L521.244 299.747L521.247 299.754L522.121 299.267ZM503.939 367.662L503.477 366.775L503.475 366.776L503.939 367.662ZM438.811 373.841H437.811V374.841H438.811V373.841ZM438.811 349.196V348.196H437.811V349.196H438.811ZM485.047 346.142L485.516 347.025L485.52 347.023L485.047 346.142ZM493.712 337.548L492.826 337.083L492.824 337.087L493.712 337.548ZM493.712 312.193L492.824 312.654L492.828 312.661L492.832 312.668L493.712 312.193ZM485.047 303.741L484.582 304.627L484.591 304.632L485.047 303.741ZM449.536 300.688V299.688H448.536V300.688H449.536ZM449.536 421V422H450.536V421H449.536ZM419.783 421V275.545H417.783V421H419.783ZM418.783 276.545H476.169V274.545H418.783V276.545ZM476.169 276.545C487.075 276.545 496.301 278.628 503.888 282.745L504.842 280.988C496.898 276.677 487.327 274.545 476.169 274.545V276.545ZM503.892 282.748C511.494 286.827 517.269 292.491 521.244 299.747L522.998 298.787C518.829 291.176 512.767 285.24 504.838 280.985L503.892 282.748ZM521.247 299.754C525.272 306.972 527.3 315.322 527.3 324.835H529.3C529.3 315.03 527.208 306.335 522.994 298.78L521.247 299.754ZM527.3 324.835C527.3 334.346 525.25 342.695 521.179 349.912L522.921 350.895C527.183 343.339 529.3 334.642 529.3 324.835H527.3ZM521.179 349.912C517.112 357.121 511.222 362.74 503.477 366.775L504.401 368.549C512.471 364.345 518.654 358.459 522.921 350.895L521.179 349.912ZM503.475 366.776C495.79 370.803 486.441 372.841 475.388 372.841V374.841C486.683 374.841 496.368 372.759 504.403 368.548L503.475 366.776ZM475.388 372.841H438.811V374.841H475.388V372.841ZM439.811 373.841V349.196H437.811V373.841H439.811ZM438.811 350.196H470.416V348.196H438.811V350.196ZM470.416 350.196C476.442 350.196 481.493 349.161 485.516 347.025L484.578 345.259C480.93 347.195 476.228 348.196 470.416 348.196V350.196ZM485.52 347.023C489.566 344.852 492.606 341.847 494.599 338.009L492.824 337.087C491.03 340.541 488.293 343.265 484.574 345.261L485.52 347.023ZM494.597 338.014C496.624 334.157 497.624 329.756 497.624 324.835H495.624C495.624 329.479 494.682 333.553 492.826 337.083L494.597 338.014ZM497.624 324.835C497.624 319.87 496.625 315.487 494.592 311.718L492.832 312.668C494.681 316.096 495.624 320.141 495.624 324.835H497.624ZM494.599 311.732C492.603 307.89 489.558 304.929 485.503 302.851L484.591 304.632C488.301 306.532 491.032 309.204 492.824 312.654L494.599 311.732ZM485.511 302.856C481.443 300.723 476.346 299.688 470.274 299.688V301.688C476.134 301.688 480.885 302.688 484.582 304.627L485.511 302.856ZM470.274 299.688H449.536V301.688H470.274V299.688ZM448.536 300.688V421H450.536V300.688H448.536ZM449.536 420H418.783V422H449.536V420ZM560.549 421V422H561.275L561.5 421.309L560.549 421ZM527.594 421L526.649 420.674L526.191 422H527.594V421ZM577.808 275.545V274.545H577.095L576.862 275.219L577.808 275.545ZM617.438 275.545L618.384 275.22L618.151 274.545H617.438V275.545ZM667.58 421V422H668.983L668.526 420.674L667.58 421ZM634.626 421L633.675 421.309L633.899 422H634.626V421ZM598.191 308.784L599.142 308.475L598.918 307.784H598.191V308.784ZM597.055 308.784V307.784H596.328L596.104 308.475L597.055 308.784ZM558.489 363.827V362.827H557.489V363.827H558.489ZM636.33 363.827H637.33V362.827H636.33V363.827ZM636.33 387.832V388.832H637.33V387.832H636.33ZM558.489 387.832H557.489V388.832H558.489V387.832ZM560.549 420H527.594V422H560.549V420ZM528.54 421.326L578.753 275.872L576.862 275.219L526.649 420.674L528.54 421.326ZM577.808 276.545H617.438V274.545H577.808V276.545ZM616.493 275.871L666.635 421.326L668.526 420.674L618.384 275.22L616.493 275.871ZM667.58 420H634.626V422H667.58V420ZM635.577 420.691L599.142 308.475L597.24 309.093L633.675 421.309L635.577 420.691ZM598.191 307.784H597.055V309.784H598.191V307.784ZM596.104 308.475L559.598 420.691L561.5 421.309L598.006 309.093L596.104 308.475ZM558.489 364.827H636.33V362.827H558.489V364.827ZM635.33 363.827V387.832H637.33V363.827H635.33ZM636.33 386.832H558.489V388.832H636.33V386.832ZM559.489 387.832V363.827H557.489V387.832H559.489ZM689.087 421H688.087V422H689.087V421ZM689.087 275.545V274.545H688.087V275.545H689.087ZM785.607 275.545H786.607V274.545H785.607V275.545ZM785.607 300.901V301.901H786.607V300.901H785.607ZM719.84 300.901V299.901H718.84V300.901H719.84ZM719.84 329.31H718.84V330.31H719.84V329.31ZM773.249 334.92L772.84 335.833L772.846 335.836L773.249 334.92ZM792.638 350.616L793.469 350.059L792.638 350.616ZM792.638 398.77L793.476 399.317L793.477 399.314L792.638 398.77ZM773.249 415.105L772.825 414.2L772.823 414.201L773.249 415.105ZM719.84 396.284H718.84V397.284H719.84V396.284ZM757.411 393.301L757.876 394.187L757.885 394.182L757.411 393.301ZM766.005 385.276L765.144 384.766L765.142 384.77L766.005 385.276ZM762.383 359.636L761.704 360.371L761.713 360.378L762.383 359.636ZM719.84 353.599V352.599H718.84V353.599H719.84ZM690.087 421V275.545H688.087V421H690.087ZM689.087 276.545H785.607V274.545H689.087V276.545ZM784.607 275.545V300.901H786.607V275.545H784.607ZM785.607 299.901H719.84V301.901H785.607V299.901ZM718.84 300.901V329.31H720.84V300.901H718.84ZM719.84 330.31H743.491V328.31H719.84V330.31ZM743.491 330.31C754.891 330.31 764.664 332.163 772.84 335.833L773.659 334.008C765.168 330.197 755.102 328.31 743.491 328.31V330.31ZM772.846 335.836C781.075 339.462 787.381 344.579 791.808 351.174L793.469 350.059C788.805 343.112 782.185 337.765 773.653 334.005L772.846 335.836ZM791.808 351.174C796.229 357.76 798.457 365.538 798.457 374.551H800.457C800.457 365.193 798.138 357.015 793.469 350.059L791.808 351.174ZM798.457 374.551C798.457 383.515 796.23 391.395 791.8 398.226L793.477 399.314C798.138 392.129 800.457 383.864 800.457 374.551H798.457ZM791.801 398.223C787.369 405.011 781.057 410.339 772.825 414.2L773.674 416.011C782.203 412.011 788.817 406.45 793.476 399.317L791.801 398.223ZM772.823 414.201C764.652 418.054 754.885 420 743.491 420V422C755.108 422 765.18 420.016 773.676 416.01L772.823 414.201ZM743.491 420H689.087V422H743.491V420ZM719.84 397.284H743.491V395.284H719.84V397.284ZM743.491 397.284C749.1 397.284 753.91 396.269 757.876 394.187L756.946 392.416C753.337 394.311 748.866 395.284 743.491 395.284V397.284ZM757.885 394.182C761.815 392.07 764.823 389.272 766.868 385.781L765.142 384.77C763.304 387.908 760.584 390.461 756.938 392.42L757.885 394.182ZM766.866 385.785C768.947 382.266 769.988 378.42 769.988 374.267H767.988C767.988 378.069 767.04 381.562 765.144 384.766L766.866 385.785ZM769.988 374.267C769.988 368.199 767.66 363.055 763.053 358.894L761.713 360.378C765.913 364.172 767.988 368.782 767.988 374.267H769.988ZM763.061 358.902C758.459 354.65 751.883 352.599 743.491 352.599V354.599C751.576 354.599 757.594 356.574 761.704 360.371L763.061 358.902ZM743.491 352.599H719.84V354.599H743.491V352.599ZM718.84 353.599V396.284H720.84V353.599H718.84ZM948.006 388.756L947.126 388.28L947.124 388.283L948.006 388.756ZM923.574 414.253L924.067 415.123L924.068 415.122L923.574 414.253ZM854.114 414.182L854.61 413.314L854.114 414.182ZM829.753 388.685L828.872 389.157L829.753 388.685ZM829.753 307.79L830.634 308.262L829.753 307.79ZM854.114 282.364L854.607 283.234L854.61 283.232L854.114 282.364ZM923.574 282.364L923.078 283.232L923.082 283.235L923.574 282.364ZM948.006 307.79L947.124 308.262L947.126 308.265L948.006 307.79ZM921.23 322.278L920.311 322.673L920.314 322.678L921.23 322.278ZM908.375 306.227L907.825 307.063L908.375 306.227ZM869.455 306.227L870.004 307.063L869.455 306.227ZM856.528 322.278L855.612 321.879L855.61 321.884L856.528 322.278ZM856.528 374.267L855.61 374.662L855.612 374.667L856.528 374.267ZM869.455 390.318L870.004 389.483L869.455 390.318ZM908.375 390.318L907.825 389.483L908.375 390.318ZM921.23 374.267L920.314 373.867L920.311 373.872L921.23 374.267ZM956.026 348.273C956.026 364.01 953.043 377.332 947.126 388.28L948.885 389.231C954.995 377.926 958.026 364.259 958.026 348.273H956.026ZM947.124 388.283C941.242 399.255 933.227 407.612 923.079 413.384L924.068 415.122C934.565 409.152 942.838 400.51 948.887 389.228L947.124 388.283ZM923.081 413.383C912.969 419.114 901.589 421.989 888.915 421.989V423.989C901.904 423.989 913.629 421.039 924.067 415.123L923.081 413.383ZM888.915 421.989C876.146 421.989 864.72 419.091 854.61 413.314L853.617 415.05C864.057 421.015 875.831 423.989 888.915 423.989V421.989ZM854.61 413.314C844.509 407.542 836.518 399.185 830.634 388.212L828.872 389.157C834.92 400.438 843.169 409.079 853.617 415.05L854.61 413.314ZM830.634 388.212C824.763 377.263 821.804 363.963 821.804 348.273H819.804C819.804 364.211 822.81 377.853 828.872 389.157L830.634 388.212ZM821.804 348.273C821.804 332.534 824.764 319.211 830.634 308.262L828.872 307.317C822.81 318.622 819.804 332.288 819.804 348.273H821.804ZM830.634 308.262C836.517 297.29 844.508 288.958 854.607 283.234L853.621 281.494C843.17 287.417 834.92 296.036 828.872 307.317L830.634 308.262ZM854.61 283.232C864.72 277.455 876.146 274.557 888.915 274.557V272.557C875.831 272.557 864.057 275.53 853.617 281.495L854.61 283.232ZM888.915 274.557C901.587 274.557 912.967 277.454 923.078 283.232L924.07 281.495C913.632 275.531 901.905 272.557 888.915 272.557V274.557ZM923.082 283.235C933.228 288.959 941.242 297.291 947.124 308.262L948.887 307.317C942.838 296.035 934.563 287.416 924.065 281.493L923.082 283.235ZM947.126 308.265C953.043 319.214 956.026 332.536 956.026 348.273H958.026C958.026 332.286 954.995 318.62 948.885 307.314L947.126 308.265ZM926.847 348.273C926.847 337.904 925.294 329.094 922.147 321.879L920.314 322.678C923.321 329.572 924.847 338.092 924.847 348.273H926.847ZM922.149 321.884C919.054 314.678 914.653 309.162 908.925 305.392L907.825 307.063C913.177 310.585 917.346 315.769 920.311 322.673L922.149 321.884ZM908.925 305.392C903.202 301.626 896.519 299.759 888.915 299.759V301.759C896.178 301.759 902.468 303.537 907.825 307.063L908.925 305.392ZM888.915 299.759C881.31 299.759 874.627 301.626 868.905 305.392L870.004 307.063C875.362 303.537 881.652 301.759 888.915 301.759V299.759ZM868.905 305.392C863.178 309.161 858.754 314.675 855.612 321.879L857.445 322.678C860.458 315.772 864.651 310.586 870.004 307.063L868.905 305.392ZM855.61 321.884C852.511 329.098 850.983 337.906 850.983 348.273H852.983C852.983 338.09 854.485 329.569 857.447 322.673L855.61 321.884ZM850.983 348.273C850.983 358.64 852.511 367.448 855.61 374.662L857.447 373.872C854.485 366.977 852.983 358.455 852.983 348.273H850.983ZM855.612 374.667C858.754 381.87 863.178 387.385 868.905 391.154L870.004 389.483C864.651 385.96 860.458 380.774 857.445 373.867L855.612 374.667ZM868.905 391.154C874.627 394.919 881.31 396.787 888.915 396.787V394.787C881.652 394.787 875.362 393.009 870.004 389.483L868.905 391.154ZM888.915 396.787C896.519 396.787 903.202 394.919 908.925 391.154L907.825 389.483C902.468 393.009 896.178 394.787 888.915 394.787V396.787ZM908.925 391.154C914.653 387.384 919.054 381.867 922.149 374.662L920.311 373.872C917.346 380.777 913.177 385.961 907.825 389.483L908.925 391.154ZM922.147 374.667C925.294 367.451 926.847 358.641 926.847 348.273H924.847C924.847 358.453 923.321 366.973 920.314 373.867L922.147 374.667ZM971.626 300.901H970.626V301.901H971.626V300.901ZM971.626 275.545V274.545H970.626V275.545H971.626ZM1091.09 275.545H1092.09V274.545H1091.09V275.545ZM1091.09 300.901V301.901H1092.09V300.901H1091.09ZM1046.55 300.901V299.901H1045.55V300.901H1046.55ZM1046.55 421V422H1047.55V421H1046.55ZM1016.16 421H1015.16V422H1016.16V421ZM1016.16 300.901H1017.16V299.901H1016.16V300.901ZM972.626 300.901V275.545H970.626V300.901H972.626ZM971.626 276.545H1091.09V274.545H971.626V276.545ZM1090.09 275.545V300.901H1092.09V275.545H1090.09ZM1091.09 299.901H1046.55V301.901H1091.09V299.901ZM1045.55 300.901V421H1047.55V300.901H1045.55ZM1046.55 420H1016.16V422H1046.55V420ZM1017.16 421V300.901H1015.16V421H1017.16ZM1016.16 299.901H971.626V301.901H1016.16V299.901ZM1202.76 421L1201.96 421.602L1202.26 422H1202.76V421ZM1156.02 358.997L1156.82 358.395L1156.52 357.997H1156.02V358.997ZM1145.51 358.997V357.997H1144.51V358.997H1145.51ZM1145.51 421V422H1146.51V421H1145.51ZM1114.76 421H1113.76V422H1114.76V421ZM1114.76 275.545V274.545H1113.76V275.545H1114.76ZM1145.51 275.545H1146.51V274.545H1145.51V275.545ZM1145.51 333.642H1144.51V334.642H1145.51V333.642ZM1151.69 333.642V334.642H1152.16L1152.46 334.281L1151.69 333.642ZM1199.99 275.545V274.545H1199.52L1199.22 274.906L1199.99 275.545ZM1238.27 275.545L1239.03 276.189L1240.42 274.545H1238.27V275.545ZM1181.52 343.017L1180.76 342.373L1180.24 342.986L1180.72 343.623L1181.52 343.017ZM1240.9 421V422H1242.91L1241.69 420.394L1240.9 421ZM1203.55 420.398L1156.82 358.395L1155.22 359.599L1201.96 421.602L1203.55 420.398ZM1156.02 357.997H1145.51V359.997H1156.02V357.997ZM1144.51 358.997V421H1146.51V358.997H1144.51ZM1145.51 420H1114.76V422H1145.51V420ZM1115.76 421V275.545H1113.76V421H1115.76ZM1114.76 276.545H1145.51V274.545H1114.76V276.545ZM1144.51 275.545V333.642H1146.51V275.545H1144.51ZM1145.51 334.642H1151.69V332.642H1145.51V334.642ZM1152.46 334.281L1200.76 276.185L1199.22 274.906L1150.92 333.003L1152.46 334.281ZM1199.99 276.545H1238.27V274.545H1199.99V276.545ZM1237.5 274.902L1180.76 342.373L1182.29 343.661L1239.03 276.189L1237.5 274.902ZM1180.72 343.623L1240.1 421.606L1241.69 420.394L1182.32 342.411L1180.72 343.623ZM1240.9 420H1202.76V422H1240.9V420ZM1285.43 421V422H1286.16L1286.38 421.309L1285.43 421ZM1252.48 421L1251.53 420.674L1251.07 422H1252.48V421ZM1302.69 275.545V274.545H1301.98L1301.75 275.219L1302.69 275.545ZM1342.32 275.545L1343.27 275.22L1343.03 274.545H1342.32V275.545ZM1392.46 421V422H1393.87L1393.41 420.674L1392.46 421ZM1359.51 421L1358.56 421.309L1358.78 422H1359.51V421ZM1323.07 308.784L1324.03 308.475L1323.8 307.784H1323.07V308.784ZM1321.94 308.784V307.784H1321.21L1320.99 308.475L1321.94 308.784ZM1283.37 363.827V362.827H1282.37V363.827H1283.37ZM1361.21 363.827H1362.21V362.827H1361.21V363.827ZM1361.21 387.832V388.832H1362.21V387.832H1361.21ZM1283.37 387.832H1282.37V388.832H1283.37V387.832ZM1285.43 420H1252.48V422H1285.43V420ZM1253.42 421.326L1303.64 275.872L1301.75 275.219L1251.53 420.674L1253.42 421.326ZM1302.69 276.545H1342.32V274.545H1302.69V276.545ZM1341.38 275.871L1391.52 421.326L1393.41 420.674L1343.27 275.22L1341.38 275.871ZM1392.46 420H1359.51V422H1392.46V420ZM1360.46 420.691L1324.03 308.475L1322.12 309.093L1358.56 421.309L1360.46 420.691ZM1323.07 307.784H1321.94V309.784H1323.07V307.784ZM1320.99 308.475L1284.48 420.691L1286.38 421.309L1322.89 309.093L1320.99 308.475ZM1283.37 364.827H1361.21V362.827H1283.37V364.827ZM1360.21 363.827V387.832H1362.21V363.827H1360.21ZM1361.21 386.832H1283.37V388.832H1361.21V386.832ZM1284.37 387.832V363.827H1282.37V387.832H1284.37Z" fill="white" fill-opacity="0.6"/>
<circle cx="857.908" cy="19.5181" r="6" transform="rotate(-34.0154 857.908 19.5181)" fill="white" fill-opacity="0.4"/>
<circle cx="841.33" cy="30.7064" r="6" transform="rotate(-34.0154 841.33 30.7064)" fill="white" fill-opacity="0.4"/>
<circle cx="885.674" cy="24.9076" r="6" transform="rotate(-34.0154 885.674 24.9076)" fill="white" fill-opacity="0.4"/>
<circle cx="896.862" cy="41.4853" r="6" transform="rotate(-34.0154 896.862 41.4853)" fill="white" fill-opacity="0.4"/>
<circle cx="880.284" cy="52.6736" r="6" transform="rotate(-34.0154 880.284 52.6736)" fill="white" fill-opacity="0.4"/>
<circle cx="863.706" cy="63.8619" r="6" transform="rotate(-34.0154 863.706 63.8619)" fill="white" fill-opacity="0.4"/>
<circle cx="874.895" cy="80.4397" r="6" transform="rotate(-34.0154 874.895 80.4397)" fill="white" fill-opacity="0.4"/>
<circle cx="869.096" cy="36.0959" r="6" transform="rotate(-34.0154 869.096 36.0959)" fill="white" fill-opacity="0.4"/>
<circle cx="574.021" cy="175.29" r="6" transform="rotate(45.3178 574.021 175.29)" fill="white" fill-opacity="0.4"/>
<circle cx="559.957" cy="161.069" r="6" transform="rotate(45.3178 559.957 161.069)" fill="white" fill-opacity="0.4"/>
<circle cx="573.864" cy="203.573" r="6" transform="rotate(45.3178 573.864 203.573)" fill="white" fill-opacity="0.4"/>
<circle cx="559.643" cy="217.637" r="6" transform="rotate(45.3178 559.643 217.637)" fill="white" fill-opacity="0.4"/>
<circle cx="545.58" cy="203.416" r="6" transform="rotate(45.3178 545.58 203.416)" fill="white" fill-opacity="0.4"/>
<circle cx="531.516" cy="189.196" r="6" transform="rotate(45.3178 531.516 189.196)" fill="white" fill-opacity="0.4"/>
<circle cx="517.296" cy="203.26" r="6" transform="rotate(45.3178 517.296 203.26)" fill="white" fill-opacity="0.4"/>
<circle cx="559.8" cy="189.353" r="6" transform="rotate(45.3178 559.8 189.353)" fill="white" fill-opacity="0.4"/>
<circle cx="78.2098" cy="1033.71" r="6" transform="rotate(45.3178 78.2098 1033.71)" fill="white" fill-opacity="0.4"/>
<circle cx="64.1463" cy="1019.49" r="6" transform="rotate(45.3178 64.1463 1019.49)" fill="white" fill-opacity="0.4"/>
<circle cx="78.0528" cy="1061.99" r="6" transform="rotate(45.3178 78.0528 1061.99)" fill="white" fill-opacity="0.4"/>
<circle cx="63.8325" cy="1076.05" r="6" transform="rotate(45.3178 63.8325 1076.05)" fill="white" fill-opacity="0.4"/>
<circle cx="49.769" cy="1061.83" r="6" transform="rotate(45.3178 49.769 1061.83)" fill="white" fill-opacity="0.4"/>
<circle cx="35.7056" cy="1047.61" r="6" transform="rotate(45.3178 35.7056 1047.61)" fill="white" fill-opacity="0.4"/>
<circle cx="21.4852" cy="1061.68" r="6" transform="rotate(45.3178 21.4852 1061.68)" fill="white" fill-opacity="0.4"/>
<circle cx="63.9894" cy="1047.77" r="6" transform="rotate(45.3178 63.9894 1047.77)" fill="white" fill-opacity="0.4"/>
<circle cx="1189.25" cy="864.99" r="6" transform="rotate(6.44483 1189.25 864.99)" fill="white" fill-opacity="0.4"/>
<circle cx="1169.37" cy="862.745" r="6" transform="rotate(6.44483 1169.37 862.745)" fill="white" fill-opacity="0.4"/>
<circle cx="1206.88" cy="887.109" r="6" transform="rotate(6.44483 1206.88 887.109)" fill="white" fill-opacity="0.4"/>
<circle cx="1204.63" cy="906.982" r="6" transform="rotate(6.44483 1204.63 906.982)" fill="white" fill-opacity="0.4"/>
<circle cx="1184.76" cy="904.738" r="6" transform="rotate(6.44483 1184.76 904.738)" fill="white" fill-opacity="0.4"/>
<circle cx="1164.88" cy="902.493" r="6" transform="rotate(6.44483 1164.88 902.493)" fill="white" fill-opacity="0.4"/>
<circle cx="1162.64" cy="922.366" r="6" transform="rotate(6.44483 1162.64 922.366)" fill="white" fill-opacity="0.4"/>
<circle cx="1187" cy="884.864" r="6" transform="rotate(6.44483 1187 884.864)" fill="white" fill-opacity="0.4"/>
</svg>
