<svg width="1292" height="493" viewBox="0 0 1292 493" fill="none" xmlns="http://www.w3.org/2000/svg">
<path d="M580.878 337.818H550.835C550.622 335.332 550.054 333.077 549.131 331.053C548.243 329.029 547 327.289 545.402 325.833C543.839 324.342 541.94 323.205 539.702 322.424C537.465 321.607 534.926 321.199 532.085 321.199C527.114 321.199 522.906 322.406 519.461 324.821C516.052 327.236 513.46 330.698 511.684 335.208C509.944 339.718 509.074 345.134 509.074 351.455C509.074 358.131 509.962 363.724 511.737 368.234C513.548 372.708 516.158 376.082 519.567 378.354C522.977 380.592 527.078 381.71 531.872 381.71C534.607 381.71 537.057 381.373 539.223 380.698C541.389 379.988 543.271 378.976 544.869 377.662C546.467 376.348 547.763 374.768 548.758 372.921C549.788 371.039 550.48 368.926 550.835 366.582L580.878 366.795C580.523 371.412 579.227 376.117 576.989 380.911C574.752 385.67 571.574 390.073 567.455 394.121C563.371 398.134 558.31 401.366 552.273 403.816C546.237 406.266 539.223 407.491 531.233 407.491C521.219 407.491 512.234 405.343 504.28 401.046C496.361 396.749 490.093 390.428 485.477 382.083C480.896 373.738 478.605 363.528 478.605 351.455C478.605 339.31 480.949 329.082 485.636 320.773C490.324 312.428 496.645 306.124 504.599 301.863C512.554 297.566 521.432 295.418 531.233 295.418C538.122 295.418 544.461 296.359 550.249 298.241C556.038 300.123 561.116 302.875 565.484 306.497C569.852 310.084 573.367 314.505 576.031 319.761C578.694 325.016 580.31 331.036 580.878 337.818ZM702.996 351.455C702.996 363.599 700.635 373.844 695.912 382.19C691.189 390.499 684.814 396.803 676.789 401.099C668.763 405.361 659.814 407.491 649.942 407.491C639.999 407.491 631.015 405.343 622.989 401.046C614.999 396.714 608.643 390.393 603.92 382.083C599.232 373.738 596.888 363.528 596.888 351.455C596.888 339.31 599.232 329.082 603.92 320.773C608.643 312.428 614.999 306.124 622.989 301.863C631.015 297.566 639.999 295.418 649.942 295.418C659.814 295.418 668.763 297.566 676.789 301.863C684.814 306.124 691.189 312.428 695.912 320.773C700.635 329.082 702.996 339.31 702.996 351.455ZM672.528 351.455C672.528 344.92 671.657 339.416 669.917 334.942C668.213 330.432 665.674 327.023 662.3 324.714C658.962 322.371 654.843 321.199 649.942 321.199C645.042 321.199 640.905 322.371 637.531 324.714C634.193 327.023 631.654 330.432 629.914 334.942C628.209 339.416 627.357 344.92 627.357 351.455C627.357 357.989 628.209 363.511 629.914 368.021C631.654 372.495 634.193 375.904 637.531 378.248C640.905 380.556 645.042 381.71 649.942 381.71C654.843 381.71 658.962 380.556 662.3 378.248C665.674 375.904 668.213 372.495 669.917 368.021C671.657 363.511 672.528 357.989 672.528 351.455ZM719.699 296.909H756.56L781.915 358.699H783.194L808.549 296.909H845.409V406H816.432V342.932H815.58L791.29 405.148H773.819L749.529 342.506H748.676V406H719.699V296.909ZM862.445 406V296.909H909.533C917.63 296.909 924.714 298.507 930.787 301.703C936.859 304.899 941.582 309.391 944.956 315.18C948.33 320.968 950.016 327.733 950.016 335.474C950.016 343.287 948.276 350.052 944.796 355.769C941.352 361.487 936.504 365.89 930.254 368.979C924.04 372.069 916.778 373.614 908.468 373.614H880.343V350.602H902.502C905.982 350.602 908.947 349.999 911.398 348.791C913.884 347.548 915.783 345.79 917.097 343.518C918.447 341.245 919.121 338.564 919.121 335.474C919.121 332.349 918.447 329.686 917.097 327.484C915.783 325.247 913.884 323.543 911.398 322.371C908.947 321.163 905.982 320.56 902.502 320.56H892.062V406H862.445ZM978.598 406H946.638L982.646 296.909H1023.13L1059.14 406H1027.18L1003.31 326.952H1002.46L978.598 406ZM972.632 362.96H1032.72V385.119H972.632V362.96ZM1167.03 296.909V406H1142.32L1102.9 348.685H1102.26V406H1072.64V296.909H1097.79L1136.56 354.011H1137.42V296.909H1167.03ZM1179.57 296.909H1212.59L1233.9 341.227H1234.75L1256.06 296.909H1289.09L1249.03 371.696V406H1219.63V371.696L1179.57 296.909Z" fill="white" fill-opacity="0.05"/>
<circle cx="302" cy="202" r="6" fill="white" fill-opacity="0.4"/>
<circle cx="282" cy="202" r="6" fill="white" fill-opacity="0.4"/>
<circle cx="322" cy="222" r="6" fill="white" fill-opacity="0.4"/>
<circle cx="322" cy="242" r="6" fill="white" fill-opacity="0.4"/>
<circle cx="302" cy="242" r="6" fill="white" fill-opacity="0.4"/>
<circle cx="282" cy="242" r="6" fill="white" fill-opacity="0.4"/>
<circle cx="282" cy="262" r="6" fill="white" fill-opacity="0.4"/>
<circle cx="302" cy="222" r="6" fill="white" fill-opacity="0.4"/>
<circle cx="1233" cy="427" r="6" fill="white" fill-opacity="0.4"/>
<circle cx="1213" cy="427" r="6" fill="white" fill-opacity="0.4"/>
<circle cx="1253" cy="447" r="6" fill="white" fill-opacity="0.4"/>
<circle cx="1253" cy="467" r="6" fill="white" fill-opacity="0.4"/>
<circle cx="1233" cy="467" r="6" fill="white" fill-opacity="0.4"/>
<circle cx="1213" cy="467" r="6" fill="white" fill-opacity="0.4"/>
<circle cx="1213" cy="487" r="6" fill="white" fill-opacity="0.4"/>
<circle cx="1233" cy="447" r="6" fill="white" fill-opacity="0.4"/>
<circle cx="876.903" cy="44.1077" r="6" transform="rotate(-26.882 876.903 44.1077)" fill="white" fill-opacity="0.4"/>
<circle cx="859.065" cy="53.1507" r="6" transform="rotate(-26.882 859.065 53.1507)" fill="white" fill-opacity="0.4"/>
<circle cx="903.785" cy="52.9034" r="6" transform="rotate(-26.882 903.785 52.9034)" fill="white" fill-opacity="0.4"/>
<circle cx="912.828" cy="70.7422" r="6" transform="rotate(-26.882 912.828 70.7422)" fill="white" fill-opacity="0.4"/>
<circle cx="894.99" cy="79.7852" r="6" transform="rotate(-26.882 894.99 79.7852)" fill="white" fill-opacity="0.4"/>
<circle cx="877.151" cy="88.8282" r="6" transform="rotate(-26.882 877.151 88.8282)" fill="white" fill-opacity="0.4"/>
<circle cx="886.194" cy="106.667" r="6" transform="rotate(-26.882 886.194 106.667)" fill="white" fill-opacity="0.4"/>
<circle cx="885.946" cy="61.9463" r="6" transform="rotate(-26.882 885.946 61.9463)" fill="white" fill-opacity="0.4"/>
<path d="M49.0057 146H7.03125V36.9091H48.5795C59.8011 36.9091 69.4957 39.093 77.6634 43.4609C85.8665 47.7933 92.1875 54.0433 96.6264 62.2109C101.101 70.343 103.338 80.0909 103.338 91.4545C103.338 102.818 101.119 112.584 96.6797 120.751C92.2408 128.884 85.9553 135.134 77.8232 139.501C69.6911 143.834 60.0852 146 49.0057 146ZM36.6477 120.858H47.9403C53.3381 120.858 57.9368 119.988 61.7365 118.248C65.5717 116.508 68.4837 113.507 70.4723 109.246C72.4965 104.984 73.5085 99.054 73.5085 91.4545C73.5085 83.8551 72.4787 77.9247 70.419 73.6633C68.3949 69.402 65.4119 66.4013 61.4702 64.6612C57.5639 62.9212 52.7699 62.0511 47.0881 62.0511H36.6477V120.858ZM120.041 146V36.9091H198.663V60.7727H149.657V79.5227H194.615V103.386H149.657V122.136H198.45V146H120.041ZM246.181 36.9091L268.553 113.827H269.406L291.778 36.9091H325.229L289.221 146H248.738L212.729 36.9091H246.181ZM338.736 146V36.9091H417.358V60.7727H368.353V79.5227H413.31V103.386H368.353V122.136H417.145V146H338.736ZM435.047 146V36.9091H464.663V122.136H508.768V146H435.047ZM625.174 91.4545C625.174 103.599 622.813 113.844 618.089 122.19C613.366 130.499 606.992 136.803 598.967 141.099C590.941 145.361 581.992 147.491 572.12 147.491C562.177 147.491 553.192 145.343 545.167 141.046C537.177 136.714 530.82 130.393 526.097 122.083C521.41 113.738 519.066 103.528 519.066 91.4545C519.066 79.3097 521.41 69.0824 526.097 60.7727C530.82 52.4276 537.177 46.1243 545.167 41.8629C553.192 37.566 562.177 35.4176 572.12 35.4176C581.992 35.4176 590.941 37.566 598.967 41.8629C606.992 46.1243 613.366 52.4276 618.089 60.7727C622.813 69.0824 625.174 79.3097 625.174 91.4545ZM594.705 91.4545C594.705 84.9205 593.835 79.4162 592.095 74.9418C590.391 70.4318 587.852 67.0227 584.478 64.7145C581.14 62.3707 577.021 61.1989 572.12 61.1989C567.219 61.1989 563.082 62.3707 559.709 64.7145C556.371 67.0227 553.832 70.4318 552.092 74.9418C550.387 79.4162 549.535 84.9205 549.535 91.4545C549.535 97.9886 550.387 103.511 552.092 108.021C553.832 112.495 556.371 115.904 559.709 118.248C563.082 120.556 567.219 121.71 572.12 121.71C577.021 121.71 581.14 120.556 584.478 118.248C587.852 115.904 590.391 112.495 592.095 108.021C593.835 103.511 594.705 97.9886 594.705 91.4545ZM641.877 146V36.9091H688.965C697.062 36.9091 704.146 38.5071 710.219 41.7031C716.291 44.8991 721.014 49.3913 724.388 55.1797C727.761 60.968 729.448 67.733 729.448 75.4744C729.448 83.2869 727.708 90.0518 724.228 95.7692C720.783 101.487 715.936 105.89 709.686 108.979C703.471 112.069 696.209 113.614 687.9 113.614H659.775V90.6023H681.934C685.414 90.6023 688.379 89.9986 690.829 88.7912C693.315 87.5483 695.215 85.7905 696.529 83.5178C697.878 81.245 698.553 78.5639 698.553 75.4744C698.553 72.3494 697.878 69.6861 696.529 67.4844C695.215 65.2472 693.315 63.5426 690.829 62.3707C688.379 61.1633 685.414 60.5597 681.934 60.5597H671.493V146H641.877ZM743.314 36.9091H780.175L805.53 98.6989H806.809L832.164 36.9091H869.025V146H840.047V82.9318H839.195L814.905 145.148H797.434L773.144 82.5057H772.292V146H743.314V36.9091ZM886.061 146V36.9091H964.683V60.7727H915.677V79.5227H960.634V103.386H915.677V122.136H964.47V146H886.061ZM1076.76 36.9091V146H1052.04L1012.63 88.6847H1011.99V146H982.371V36.9091H1007.51L1046.29 94.0114H1047.14V36.9091H1076.76ZM1090.79 60.7727V36.9091H1185.6V60.7727H1152.79V146H1123.6V60.7727H1090.79Z" fill="white" fill-opacity="0.05"/>
</svg>
