<svg width="100" height="22" viewBox="0 0 100 22" fill="none" xmlns="http://www.w3.org/2000/svg">
<path d="M9.05114 0.727272L3.42614 21.625H0.298295L5.9233 0.727272H9.05114ZM18.4027 0.727272L12.7777 21.625H9.64986L15.2749 0.727272H18.4027ZM35.6207 7.65625H31.8878C31.8196 7.1733 31.6804 6.74432 31.4702 6.36932C31.2599 5.98864 30.9901 5.66477 30.6605 5.39773C30.331 5.13068 29.9503 4.92614 29.5185 4.78409C29.0923 4.64205 28.6293 4.57102 28.1293 4.57102C27.2259 4.57102 26.4389 4.79545 25.7685 5.24432C25.098 5.6875 24.5781 6.33523 24.2088 7.1875C23.8395 8.03409 23.6548 9.0625 23.6548 10.2727C23.6548 11.517 23.8395 12.5625 24.2088 13.4091C24.5838 14.2557 25.1065 14.8949 25.777 15.3267C26.4474 15.7585 27.223 15.9744 28.1037 15.9744C28.598 15.9744 29.0554 15.9091 29.4759 15.7784C29.902 15.6477 30.2798 15.4574 30.6094 15.2074C30.9389 14.9517 31.2116 14.642 31.4276 14.2784C31.6491 13.9148 31.8026 13.5 31.8878 13.0341L35.6207 13.0511C35.5241 13.8523 35.2827 14.625 34.8963 15.3693C34.5156 16.108 34.0014 16.7699 33.3537 17.3551C32.7116 17.9347 31.9446 18.3949 31.0526 18.7358C30.1662 19.071 29.1634 19.2386 28.044 19.2386C26.4872 19.2386 25.0952 18.8864 23.8679 18.1818C22.6463 17.4773 21.6804 16.4574 20.9702 15.1222C20.2656 13.7869 19.9134 12.1705 19.9134 10.2727C19.9134 8.36932 20.2713 6.75 20.9872 5.41477C21.7031 4.07955 22.6747 3.0625 23.902 2.36364C25.1293 1.65909 26.5099 1.30682 28.044 1.30682C29.0554 1.30682 29.9929 1.44886 30.8565 1.73295C31.7259 2.01705 32.4957 2.43182 33.1662 2.97727C33.8366 3.51704 34.3821 4.17898 34.8026 4.96307C35.2287 5.74716 35.5014 6.64489 35.6207 7.65625ZM37.6023 4.58807V1.54545H51.9375V4.58807H46.5938V19H42.946V4.58807H37.6023ZM55.174 19H51.2195L57.245 1.54545H62.0007L68.0178 19H64.0632L59.6911 5.53409H59.5547L55.174 19ZM54.9268 12.1392H64.2678V15.0199H54.9268V12.1392ZM70.1186 19V1.54545H77.005C78.3288 1.54545 79.4567 1.7983 80.3885 2.30398C81.3203 2.80398 82.0305 3.5 82.5192 4.39204C83.0135 5.27841 83.2607 6.30114 83.2607 7.46023C83.2607 8.61932 83.0107 9.64205 82.5107 10.5284C82.0107 11.4148 81.2862 12.1051 80.3374 12.5994C79.3942 13.0937 78.2521 13.3409 76.9112 13.3409H72.522V10.3835H76.3146C77.0249 10.3835 77.6101 10.2614 78.0703 10.017C78.5362 9.76705 78.8828 9.4233 79.1101 8.9858C79.343 8.54261 79.4595 8.03409 79.4595 7.46023C79.4595 6.88068 79.343 6.375 79.1101 5.94318C78.8828 5.50568 78.5362 5.16761 78.0703 4.92898C77.6044 4.68466 77.0135 4.5625 76.2976 4.5625H73.8089V19H70.1186ZM84.9929 4.58807V1.54545H99.3281V4.58807H93.9844V19H90.3366V4.58807H84.9929Z" fill="white"/>
</svg>
