<svg width="1370" height="787" viewBox="0 0 1370 787" fill="none" xmlns="http://www.w3.org/2000/svg">
<circle cx="26" cy="6" r="6" fill="white" fill-opacity="0.4"/>
<circle cx="6" cy="6" r="6" fill="white" fill-opacity="0.4"/>
<circle cx="46" cy="26" r="6" fill="white" fill-opacity="0.4"/>
<circle cx="46" cy="46" r="6" fill="white" fill-opacity="0.4"/>
<circle cx="26" cy="46" r="6" fill="white" fill-opacity="0.4"/>
<circle cx="6" cy="46" r="6" fill="white" fill-opacity="0.4"/>
<circle cx="6" cy="66" r="6" fill="white" fill-opacity="0.4"/>
<circle cx="26" cy="26" r="6" fill="white" fill-opacity="0.4"/>
<circle cx="1334.91" cy="481.518" r="6" transform="rotate(-34.0154 1334.91 481.518)" fill="white" fill-opacity="0.4"/>
<circle cx="1318.33" cy="492.706" r="6" transform="rotate(-34.0154 1318.33 492.706)" fill="white" fill-opacity="0.4"/>
<circle cx="1362.67" cy="486.908" r="6" transform="rotate(-34.0154 1362.67 486.908)" fill="white" fill-opacity="0.4"/>
<circle cx="1373.86" cy="503.485" r="6" transform="rotate(-34.0154 1373.86 503.485)" fill="white" fill-opacity="0.4"/>
<circle cx="1357.28" cy="514.674" r="6" transform="rotate(-34.0154 1357.28 514.674)" fill="white" fill-opacity="0.4"/>
<circle cx="1340.71" cy="525.862" r="6" transform="rotate(-34.0154 1340.71 525.862)" fill="white" fill-opacity="0.4"/>
<circle cx="1351.89" cy="542.44" r="6" transform="rotate(-34.0154 1351.89 542.44)" fill="white" fill-opacity="0.4"/>
<circle cx="1346.1" cy="498.096" r="6" transform="rotate(-34.0154 1346.1 498.096)" fill="white" fill-opacity="0.4"/>
<circle cx="650.389" cy="759.087" r="6" transform="rotate(-89.1408 650.389 759.087)" fill="white" fill-opacity="0.4"/>
<circle cx="650.089" cy="779.085" r="6" transform="rotate(-89.1408 650.089 779.085)" fill="white" fill-opacity="0.4"/>
<circle cx="670.687" cy="739.389" r="6" transform="rotate(-89.1408 670.687 739.389)" fill="white" fill-opacity="0.4"/>
<circle cx="690.685" cy="739.689" r="6" transform="rotate(-89.1408 690.685 739.689)" fill="white" fill-opacity="0.4"/>
<circle cx="690.385" cy="759.687" r="6" transform="rotate(-89.1408 690.385 759.687)" fill="white" fill-opacity="0.4"/>
<circle cx="690.085" cy="779.685" r="6" transform="rotate(-89.1408 690.085 779.685)" fill="white" fill-opacity="0.4"/>
<circle cx="710.083" cy="779.984" r="6" transform="rotate(-89.1408 710.083 779.984)" fill="white" fill-opacity="0.4"/>
<circle cx="670.387" cy="759.387" r="6" transform="rotate(-89.1408 670.387 759.387)" fill="white" fill-opacity="0.4"/>
</svg>
